<svg xmlns="http://www.w3.org/2000/svg" viewBox="0 0 229.0348 60.5151"><path fill="#a100ff" fill-rule="evenodd" d="M133.451 16.8285l13.0085-4.7652-13.0084-5.018V0l22.7008 9.1415v5.7374l-22.7008 9.192v-7.2424"/><path fill-rule="evenodd" d="M8.6877 60.5124zm.0014-.0013C3.9408 60.5124 0 58.087 0 52.7308v-.3033c0-6.5166 5.657-8.6386 12.4768-8.6386h3.2848v-1.2626c0-2.625-1.1615-4.244-3.8901-4.244-2.4747 0-3.7891 1.4142-3.99 3.4377H.8076c.5056-5.8619 5.1515-8.7435 11.4177-8.7435 6.3662 0 10.9136 2.73 10.9136 9.297v17.6841h-7.2256v-3.0308c-1.2625 1.9173-3.688 3.583-7.2242 3.5843zm7.0725-9.3476v-2.5239H12.832c-3.6387 0-5.5067 1.0112-5.5067 3.3821v.2527c0 1.82 1.1123 3.084 3.5882 3.084 2.5265 0 4.8481-1.413 4.8481-4.195M39.8637 60.511c-7.3253.0014-12.6272-4.5473-12.6272-13.4866v-.3539c0-8.9405 5.6558-13.6914 12.6791-13.6914 6.011 0 10.9615 3.032 11.5681 9.9517l-7.0726-.0013c-.455-2.5744-1.7694-4.2442-4.3464-4.2442-3.1332 0-5.3046 2.476-5.3046 7.6807v.8075c0 5.3564 1.9199 7.7804 5.3564 7.7804 2.5264 0 4.3918-1.8692 4.8002-4.7496h6.7174c-.5056 6.0134-4.598 10.3056-11.7704 10.3068M67.3504 60.5124c-7.3267 0-12.6285-4.5473-12.6285-13.4867v-.3538c0-8.9406 5.6557-13.6915 12.6777-13.6915 6.0123 0 10.9628 3.032 11.5708 9.9504h-7.0739c-.4537-2.5745-1.7694-4.2441-4.344-4.2441-3.133 0-5.3057 2.4758-5.3057 7.6805v.809c0 5.3562 1.9212 7.779 5.3564 7.779 2.5264 0 4.3917-1.8693 4.8001-4.7496h6.7175c-.5056 6.0135-4.5967 10.3055-11.7704 10.3068M95.038 60.5137c-7.6275.0014-12.8295-4.5461-12.8295-13.335v-.5055c0-8.8433 5.5054-13.6915 12.578-13.6915 6.5683 0 12.0736 3.6867 12.0736 12.4263v3.1837H89.6843c.3033 4.7483 2.3229 6.5696 5.5066 6.5696 2.8272 0 4.3426-1.5166 4.8495-3.4365h6.821c-.81 4.9999-4.9013 8.7876-11.8234 8.789zm-5.2539-16.822h9.9024c-.1542-3.8876-1.9198-5.5573-4.8494-5.5573-2.3256 0-4.4451 1.2627-5.053 5.5573M111.4076 33.539h7.3772v3.9395c1.317-2.476 3.9447-4.4968 7.9865-4.4968 4.8002 0 7.98 2.8778 7.98 9.2944v17.6854l-7.3772-.0014V43.3884c0-3.0813-1.2626-4.4476-3.9394-4.4476-2.5758 0-4.6486 1.5672-4.6486 4.9012v16.117h-7.3746v-26.42h-.004M148.5452 25.5565v7.9826h5.053v5.5041h-5.053v12.53c0 1.9716.91 2.879 2.6263 2.879 1.0617 0 1.8666-.1517 2.5757-.4537v5.7595c-.8556.2528-2.323.5561-4.1404.5561-5.7593 0-8.4881-2.6276-8.4881-7.984V39.0432h-3.0826v-5.5041h3.0826v-4.9544l7.4252-3.0295.0013.0013M181.3868 59.959h-7.3772v-3.8877c-1.2625 2.5264-3.7385 4.4438-7.6819 4.4438-4.7469 0-8.234-2.8804-8.234-9.0923V33.5391h7.4278v16.7728c0 3.0306 1.2108 4.4437 3.8384 4.4437 2.5769 0 4.6485-1.6165 4.6485-4.8975v-16.319h7.3759v26.4198h.0026M186.7444 33.5377h7.376v4.8495c1.5659-3.5376 4.0419-5.202 7.9295-5.202v7.2735c-4.9999 0-7.9295 1.5166-7.9295 5.9112v13.5916l-7.376-.0014V33.5377M217.2125 60.5137c-7.6286.0014-12.832-4.5461-12.832-13.335v-.5055c0-8.8433 5.5054-13.6915 12.5767-13.6915 6.5684 0 12.0763 3.6867 12.0763 12.4263v3.1837h-17.1759c.3033 4.7483 2.323 6.5696 5.5053 6.5696 2.8286 0 4.3439-1.5166 4.8508-3.4365h6.8211c-.8101 4.9999-4.9013 8.7876-11.8223 8.789zm-5.255-16.822h9.9024c-.1518-3.8876-1.9199-5.5573-4.8483-5.5573-2.3255 0-4.445 1.2627-5.0541 5.5573"/></svg>
