<svg xmlns="http://www.w3.org/2000/svg" viewBox="0 0 505.849 148.6532"><path d="M81.974 33.3514c-4.282 0-7.369 2.806-7.369 6.698 0 2.08 21.882 75.333 23.296 77.966.335.624 1.445 1.647 2.498 2.286 1.041.641 2.38 1.175 2.976 1.175 1.618 0 4.287-1.57 5.299-3.105.498-.756 3.5-9.406 6.677-19.229 3.18-9.819 6.096-18.574 6.462-19.443.661-1.561.661-1.561 1.298-.296.356.706 3.319 9.565 6.592 19.685 6.241 19.326 7.167 21.249 10.677 22.124 2.008.506 5.258-.91 6.512-2.841 1.412-2.177 23.577-75.806 23.577-78.321 0-3.892-3.097-6.698-7.363-6.698-3.139 0-5.479 2.305-6.832 6.732-.622 2.021-4.163 13.666-7.856 25.865-3.696 12.199-6.907 22.178-7.147 22.178-.227 0-.875-1.67-1.451-3.717-.565-2.05-1.218-3.996-1.445-4.318-.232-.327-2.558-7.285-5.159-15.444-5.358-16.815-6.476-18.796-10.683-18.796-4.194 0-5.317 1.981-10.677 18.796-2.602 8.16-4.909 15.117-5.136 15.444-.23.322-.888 2.269-1.453 4.318-.565 2.047-1.234 3.717-1.469 3.717-.232 0-3.451-9.979-7.147-22.178-3.688-12.199-7.214-23.844-7.831-25.865-1.356-4.428-3.715-6.733-6.846-6.733zm-20.32-28.773c-.903-3.051-3.99-4.606-7.039-4.578-2.682.026-5.333 1.29-6.419 3.891-.658 1.566-.852 5.393-.852 16.933 0 8.198-.101 14.907-.23 14.907-.126 0-1.936-.801-4.016-1.771-11.576-5.387-25.544-2.626-34.387 6.833-3.961 4.232-5.91 7.598-7.606 13.115C.142 57.0354 0 59.7014 0 76.2204c0 16.829.129 19.094 1.136 22.029 2.016 5.853 4.014 9.136 8.117 13.231 4.662 4.667 10.734 7.91 16.372 8.728 4.912.716 5.394.713 10.107.035 11.287-1.61 21.069-10.113 25.193-21.938.833-2.396.978-8.283 1.169-47.097.159-31.574.032-45.021-.44-46.63zm-16.137 92.367c-2.08 4.171-4.95 6.818-8.816 8.133-4.424 1.506-8.837 1.195-13.083-.925-3.913-1.961-5.83-4.009-7.782-8.305-1.117-2.474-1.215-3.871-1.221-19.98-.023-17.323-.016-17.328 1.856-21.065 2.867-5.727 7.815-8.823 14.257-8.914 6.804-.095 11.759 2.917 14.789 8.988 1.828 3.657 1.828 3.667 1.828 21.043 0 17.373 0 17.373-1.828 21.025zm275.961-65.681c-11.924.36-23.596 7.692-28.6 21.359-1.547 4.231-1.541 4.237-1.541 33.21 0 28.505.021 29.019 1.244 30.669.684.931 1.894 2.036 2.679 2.457 1.904 1.019 6.226.546 7.795-.855 2.808-2.497 2.87-3.243 2.891-32.188.008-26.1.072-27.375 1.224-29.92 1.948-4.298 3.866-6.363 7.778-8.32 2.961-1.481 4.383-1.826 7.297-1.79 6.755.09 11.655 3.081 14.567 8.917 1.868 3.732 1.866 3.742 1.866 31.05 0 22.433.146 27.683.849 29.372 2.589 6.189 11.57 5.627 13.496-.855.418-1.404.562-11.523.424-29.814-.194-27.21-.217-27.754-1.577-31.556-.762-2.132-1.943-4.808-2.623-5.958-6.532-10.976-17.243-16.093-27.769-15.778zm106.756 21.993c-4.287-13.62-16.821-22.108-29.883-22.048-4.352.02-8.75.985-12.932 3.031-7.937 3.886-13.852 10.71-16.472 19.017-1.233 3.928-1.321 5.304-1.321 21.473 0 16.173.088 17.528 1.321 21.456 5.619 17.856 25.333 26.976 41.781 19.312 2.08-.971 3.89-1.764 4.014-1.764.132 0 .225 1.698.225 3.773 0 7.118-4.158 12.98-11.055 15.616-6.138 2.342-16.715-.169-20.266-4.821-2.971-3.902-8.045-4.002-11.235-.205-1.103 1.306-1.505 2.497-1.505 4.352 0 6.473 10.598 14.011 22.254 15.842 12.786 2 26.039-4.433 32.492-15.762 3.91-6.893 3.899-6.788 3.899-42.616.001-31.842-.022-32.538-1.317-36.656zm-15.128 41.382c-1.931 3.865-5.082 6.706-9.036 8.175-1.053.38-3.538.715-5.528.738-2.924.04-4.344-.305-7.299-1.779-3.91-1.96-5.828-4.011-7.782-8.31-1.117-2.456-1.2-3.856-1.2-18.733 0-14.878.083-16.27 1.2-18.734 1.954-4.298 3.872-6.363 7.782-8.32 2.586-1.296 3.998-1.726 6.271-1.79.323-.006.658 0 1.027 0 6.755.09 11.653 3.081 14.564 8.917 1.869 3.732 1.861 3.742 1.861 19.927.001 16.184.009 16.176-1.86 19.909zm61.539-48.753c6.804-.091 11.759 2.92 14.797 8.992 1.822 3.657 1.819 3.667 1.819 21.043 0 17.373.003 17.367-1.819 21.024-2.08 4.171-4.955 6.812-8.827 8.133-4.416 1.506-8.835 1.195-13.08-.925-3.913-1.961-5.828-4.009-7.774-8.305-1.123-2.478-1.213-3.871-1.231-19.98-.013-17.323-.007-17.333 1.861-21.065 2.866-5.726 7.815-8.823 14.254-8.917zm.503-14.643c-13.539-.064-25.701 8.659-29.908 22.014-1.239 3.957-1.321 5.257-1.321 22.963 0 16.829.134 19.094 1.138 22.029 2.014 5.853 4.019 9.136 8.12 13.231 4.659 4.667 10.739 7.91 16.369 8.728 4.914.716 5.392.713 10.104.035 8.77-1.249 18.645-8.171 22.493-15.78 3.508-6.913 3.706-8.479 3.706-28.542 0-17.396-.08-18.717-1.318-22.664-3.601-11.444-13.6-20.078-25.145-21.697-1.421-.195-2.836-.307-4.238-.317z"/><path fill="#cce4ae" d="M178.371 27.7474c-.572-3.065 1.512-5.605 4.63-5.644l107.223-1.332c3.118-.039 4.613 2.252 3.322 5.09l-48.581 106.824c-1.291 2.839-4.854 5.638-7.917 6.222l-31.086 5.916c-3.063.584-6.037-1.447-6.608-4.513z"/><path fill="#e4f0d4" d="M182.226 32.4824c-.381-3.095 1.823-6.055 4.896-6.579l87.262-14.863c3.074-.524 5.111 1.554 4.528 4.617l-22.29 116.996c-.583 3.063-3.527 6.22-6.542 7.015l-47.462 12.511c-3.015.795-5.793-1.087-6.174-4.182z"/><path fill="#85c441" d="M176.147 40.4774c-.759-3.024 1.124-5.983 4.185-6.576l99.755-19.316c3.062-.593 4.896 1.384 4.077 4.393l-28.853 105.949c-.819 3.008-3.973 6.056-7.008 6.771l-40.974 9.662c-3.035.715-6.14-1.174-6.899-4.197z"/><path fill="#fff" d="M226.59 45.8704c9.276 0 15.667 5.973 16.258 15.222l.281 4.41h-33.065l.279-4.41c.593-9.249 6.961-15.222 16.247-15.222zm.057-14.552c-5.944-.04-11.86 1.641-16.952 5.047-6.065 4.042-10.053 9.314-12.637 16.653-1.251 3.553-1.383 5.067-1.608 19.702-.142 9.978.01 17.487.434 20.249 2.062 13.477 13.542 24.82 27.635 27.274 3.619.637 10.156.217 14.546-.928 9.196-2.388 17.997-9.915 17.997-15.367 0-1.964-3.115-5.459-5.6-6.273-2.656-.875-4.703-.034-7.944 3.255-3.389 3.438-7.705 5.062-13.455 5.062-2.387 0-5.528-.419-6.977-.915-4.111-1.398-8.306-4.906-10.2-8.538-1.531-2.921-1.675-3.727-1.675-9.637v-6.461l21.291-.185c19.384-.157 21.446-.271 22.886-1.252 2.457-1.664 3.472-4.995 3.464-11.29-.013-8.701-.9-13.223-3.559-18.588-2.857-5.774-6.021-9.565-10.507-12.542-5.236-3.47-11.2-5.225-17.139-5.266z"/></svg>
