<svg xmlns="http://www.w3.org/2000/svg" width="272.745" height="93.606" viewBox="0 0 272.745 93.606">
  <g id="Grupo_1" data-name="Grupo 1" transform="translate(-178.717 -506.432)">
    <path id="Trazado_26" data-name="Trazado 26" d="M425.305,0A46.784,46.784,0,0,0,383.5,25.755h9.584V52.942a8.6,8.6,0,0,0,1.465,5.282q1.462,1.937,4.734,1.94a5.863,5.863,0,0,0,4.84-1.94,8.2,8.2,0,0,0,1.565-5.282V25.755h15.058V52.942A22.838,22.838,0,0,1,417.882,64.7a18.324,18.324,0,0,1-7.836,7.322,24.8,24.8,0,0,1-11.106,2.454,23.316,23.316,0,0,1-10.866-2.454,17.394,17.394,0,0,1-3.764-2.617,46.806,46.806,0,1,0,41-69.4m31.354,56.485a21.086,21.086,0,0,1-9.982,2.18h-5.992V74H425.559V25.76h21.117q8.859,0,13.593,4.494T465,42.316a16.412,16.412,0,0,1-2.113,8.278,15.073,15.073,0,0,1-6.232,5.891m-11.682-18.6h-4.293v8.859h4.293q4.7,0,4.7-4.427t-4.7-4.432" transform="translate(-20.643 506.432)"/>
    <path id="Trazado_27" data-name="Trazado 27" d="M1.919,70.662a13.705,13.705,0,0,1,5.24-5.24,14.872,14.872,0,0,1,7.448-1.877,14.649,14.649,0,0,1,8.459,2.476,12.95,12.95,0,0,1,5.075,6.85H21.5a6.89,6.89,0,0,0-2.785-3.1,8.181,8.181,0,0,0-4.147-1.031,8.533,8.533,0,0,0-4.477,1.176,8.027,8.027,0,0,0-3.054,3.322,12.089,12.089,0,0,0,0,10.048,7.992,7.992,0,0,0,3.054,3.342,8.524,8.524,0,0,0,4.477,1.176,8.048,8.048,0,0,0,4.147-1.052A7.011,7.011,0,0,0,21.5,83.639h6.643a12.877,12.877,0,0,1-5.055,6.871,14.715,14.715,0,0,1-8.48,2.455,14.861,14.861,0,0,1-7.448-1.877,13.741,13.741,0,0,1-5.24-5.22,16.022,16.022,0,0,1,0-15.205" transform="translate(178.717 473.399)"/>
    <path id="Trazado_28" data-name="Trazado 28" d="M67.379,98.056a10.54,10.54,0,0,1-4.147-4.147,12.422,12.422,0,0,1-1.506-6.19,12.162,12.162,0,0,1,1.548-6.19A10.754,10.754,0,0,1,67.5,77.383a12.955,12.955,0,0,1,11.966,0,10.759,10.759,0,0,1,4.23,4.147,12.167,12.167,0,0,1,1.547,6.19,11.918,11.918,0,0,1-1.588,6.19,11,11,0,0,1-4.292,4.147,12.478,12.478,0,0,1-6.045,1.465,12.035,12.035,0,0,1-5.941-1.465m8.892-4.332a5.552,5.552,0,0,0,2.208-2.29A7.72,7.72,0,0,0,79.3,87.72a6.885,6.885,0,0,0-1.712-5.014A5.631,5.631,0,0,0,73.4,80.953a5.5,5.5,0,0,0-4.147,1.754,6.986,6.986,0,0,0-1.671,5.014,7.093,7.093,0,0,0,1.63,5.013,5.363,5.363,0,0,0,4.105,1.753,6.011,6.011,0,0,0,2.951-.763" transform="translate(146.629 466.966)"/>
    <rect id="Rectángulo_16" data-name="Rectángulo 16" width="5.777" height="30.534" transform="translate(233.753 535.581)"/>
    <rect id="Rectángulo_17" data-name="Rectángulo 17" width="5.777" height="30.534" transform="translate(242.129 535.581)"/>
    <path id="Trazado_29" data-name="Trazado 29" d="M170.427,89.454H153.715a5.682,5.682,0,0,0,1.733,3.879,5.342,5.342,0,0,0,3.755,1.4,4.717,4.717,0,0,0,4.58-2.764h6.231a10.411,10.411,0,0,1-3.8,5.426,11.08,11.08,0,0,1-6.891,2.125,11.916,11.916,0,0,1-5.921-1.465,10.3,10.3,0,0,1-4.085-4.147,12.706,12.706,0,0,1-1.465-6.19,12.944,12.944,0,0,1,1.444-6.231,10.086,10.086,0,0,1,4.044-4.126,12.985,12.985,0,0,1,11.822-.041,9.883,9.883,0,0,1,4,3.982,12.049,12.049,0,0,1,1.424,5.921,13.644,13.644,0,0,1-.165,2.228m-5.818-3.879A4.585,4.585,0,0,0,163,82a5.707,5.707,0,0,0-3.837-1.341,5.246,5.246,0,0,0-3.611,1.3,5.711,5.711,0,0,0-1.794,3.61Z" transform="translate(101.854 466.966)"/>
    <path id="Trazado_30" data-name="Trazado 30" d="M200.19,81.51a10.321,10.321,0,0,1,4-4.126,11.582,11.582,0,0,1,5.859-1.464,11.267,11.267,0,0,1,7.035,2.125,10.339,10.339,0,0,1,3.734,5.962h-6.23a4.558,4.558,0,0,0-1.671-2.331,4.857,4.857,0,0,0-2.909-.846,4.764,4.764,0,0,0-3.92,1.8,7.94,7.94,0,0,0-1.444,5.1,7.869,7.869,0,0,0,1.444,5.055,4.764,4.764,0,0,0,3.92,1.795,4.382,4.382,0,0,0,4.58-3.135h6.23a10.542,10.542,0,0,1-3.755,5.9,11.062,11.062,0,0,1-7.015,2.187,11.578,11.578,0,0,1-5.859-1.465,10.314,10.314,0,0,1-4-4.126,14.074,14.074,0,0,1,0-12.421" transform="translate(75.399 466.966)"/>
    <path id="Trazado_31" data-name="Trazado 31" d="M254.044,75.317V86.376a2.185,2.185,0,0,0,.557,1.671,2.731,2.731,0,0,0,1.877.516h2.682v4.869H255.53q-7.3,0-7.3-7.1V75.317H245.5V70.572h2.723V64.919h5.818v5.653h5.117v4.745Z" transform="translate(51.093 472.684)"/>
    <rect id="Rectángulo_18" data-name="Rectángulo 18" width="5.777" height="22.86" transform="translate(312.362 543.256)"/>
    <path id="Trazado_32" data-name="Trazado 32" d="M306.067,94.229l5.777-17.537h6.148l-8.459,22.86h-7.015L294.1,76.691h6.19Z" transform="translate(25.83 466.564)"/>
    <path id="Trazado_33" data-name="Trazado 33" d="M364.774,89.454H348.062a5.682,5.682,0,0,0,1.733,3.879,5.343,5.343,0,0,0,3.755,1.4,4.717,4.717,0,0,0,4.58-2.764h6.231a10.411,10.411,0,0,1-3.8,5.426,11.08,11.08,0,0,1-6.891,2.125,11.916,11.916,0,0,1-5.921-1.465,10.3,10.3,0,0,1-4.085-4.147,12.706,12.706,0,0,1-1.465-6.19,12.945,12.945,0,0,1,1.444-6.231,10.085,10.085,0,0,1,4.044-4.126,12.985,12.985,0,0,1,11.822-.041,9.883,9.883,0,0,1,4,3.982,12.048,12.048,0,0,1,1.424,5.921,13.658,13.658,0,0,1-.165,2.228m-5.818-3.879A4.585,4.585,0,0,0,357.347,82a5.707,5.707,0,0,0-3.837-1.341,5.247,5.247,0,0,0-3.611,1.3,5.712,5.712,0,0,0-1.794,3.61Z" transform="translate(0.824 466.966)"/>
  </g>
</svg>
