<svg xmlns="http://www.w3.org/2000/svg" width="385.481" height="74.455"><defs><clipPath clipPathUnits="userSpaceOnUse" id="a"><path d="M0 55.841h289.111V0H0z"/></clipPath></defs><g clip-path="url(#a)" transform="matrix(1.33333 0 0 -1.33333 0 74.455)"><path d="M112.258 52.29c-8.997.73-17.944.087-24.747-.388-2.261-.23 2.203.758-.081.794-2.287-.2-6.744-.778-8.96-1.238-2.297-.038 2.086 1.21-.222 1.175-2.368.132-11.325-2.977-13.334-3.293-.404.68 15.054 4.392 15.27 5.011.264.828-.047 1.104-9.29-.858-2.306-.512-.15.514-.215.77-.222.535-8.314-2.648-14.987-5.383-.912 1.395-2.083 2.638-3.461 3.561-5.718 3.678-10.738 4.341-17.79 2.14-3.708-1.296-7.257-3.569-10.49-8.742-5.807-9.595-6.342-23.034-6.238-28.787.029-1.614.888-1.845 2.193-.689 3.917 3.47 15.48 12.144 21.543 16.388a115.036 115.036 0 005.718 3.861c-1.715-5.476-4.55-11.094-6.546-13.66C31.477 10.658 17.35 3.302 10.304 7.05c-6.295 3.748-3.447 14.241-.75 18.588.63 1.208-2.932-1.396-2.997-3.448-.184 1.142 1.138 4.417 2.952 7.653 1.196 2.073 4.379 5.495 3.153 4.73-2.277-1.196-4.216-4.49-6.648-9.396-.145-.295-.482-.405-.381.117.844 4.377 4.814 9.98 7.93 13.095.283.424-.033.614-.377.374-.318-.266-1.777-1.47-3.042-3.313-.34-.458-.844-.236-.423.32.274.548 1.442 2.001 2.899 3.555.5.467 1.294 2.01-.472.467a35.348 35.348 0 01-4.41-5.46c5.17 7.853 9.577 10.443 9.214 10.905-.705-.393-2.187-1.16-3.97-2.84 2.593 2.602 5.754 4.654 7.114 5.463 1.32.764.643.95-3.791-1.619C7.084 40.162.533 30.17.002 18.56c-.031-2.907.453-5.963 1.778-8.826 1.359-2.828 3.603-5.405 6.347-6.952C13.614-.348 19.79-.535 25.316.738c14.855 4.224 21.45 11.72 27.297 20.565 5.835 8.817 5.835 17.151 5.287 21.29 8.786 4.253 16.72 6.57 22.697 7.511 9.683 1.457 19.657 2.241 29.38 1.668 4.485-.157 2.945.365 2.28.517m-83.38-19.54c-.491-.305-1.258-.256-1.005.695.644 2.671 1.362 4.717 3.33 8.19 2.895 5.441 7.794 11.121 14.929 8.29 1.534-.629 2.276-2.138 2.47-4.142-6.242-3.328-14.92-10.045-19.723-13.033" fill="#e15f15"/><path d="M83.042 40.89c0 1.225-.162 1.71-.216 1.8l1.008.18c.037-.071.127-.467.127-1.35.702.865 1.639 1.35 2.665 1.35.9 0 1.784-.377 2.36-1.097.667-.83.973-1.91.973-3.513 0-1.441-.252-2.36-.702-3.098-.65-1.045-1.585-1.622-2.756-1.622-.92 0-1.873.415-2.486 1.117v-4.431l-.973-.198zm5.404-5.296c.288.576.486 1.423.486 2.557 0 1.208-.216 2.234-.576 2.847-.378.63-1.1.99-1.837.99-.937 0-1.82-.45-2.504-1.332v-5.062c.63-.811 1.513-1.243 2.324-1.243.918 0 1.71.486 2.107 1.243M92.602 40.817c0 1.19-.234 1.693-.288 1.802l.973.252c.054-.09.306-.595.27-1.513.252.378.594.74.973 1.008.522.396 1.027.56 1.531.56.234 0 .468-.074.486-.09l-.396-1.046c-.09.036-.252.072-.397.072-.558 0-1.098-.216-1.567-.685-.468-.468-.612-.792-.612-1.513v-5.926h-.973zM98.166 35.036c-.54.81-.828 1.873-.828 3.224 0 1.387.342 2.558.936 3.35.558.739 1.495 1.316 2.757 1.316 1.476 0 2.413-.74 2.936-1.532.522-.792.792-1.837.792-3.26 0-1.225-.252-2.18-.684-2.918-.56-.991-1.604-1.676-3.01-1.676-1.386 0-2.34.649-2.9 1.496m5.063.684c.324.739.432 1.297.432 2.342 0 1.279-.18 2.179-.522 2.828-.361.72-1.171 1.225-2.126 1.225-.99 0-1.747-.522-2.071-1.117-.342-.612-.541-1.477-.541-2.594 0-1.278.235-2.36.613-2.972.343-.56 1.098-1.081 2.072-1.081 1.08 0 1.8.595 2.143 1.369M105.799 42.655l1.008.216 2.379-6.953c.162-.469.288-1.008.323-1.135h.037c.018.108.144.613.324 1.117l2.378 6.809h1.044l-3.314-9.061h-.972zM114.657 45.537a.8.8 0 00.794.792.788.788 0 00.793-.792.8.8 0 00-.793-.792.8.8 0 00-.793.792m.27-2.828l1.01.162v-9.133h-1.01zM119.105 40.817c0 .991-.18 1.477-.306 1.783l.955.252c.036-.07.288-.629.288-1.422.882.936 1.855 1.441 2.882 1.441.918 0 1.657-.432 1.999-1.063.216-.342.342-.775.342-1.243v-6.827h-.972v6.322c0 .847-.144 1.19-.414 1.532-.235.252-.667.432-1.171.432-.811 0-1.928-.558-2.648-1.387v-6.899h-.955zM128.665 34.946c-.54.81-.828 1.819-.828 3.17 0 1.945.54 2.99 1.278 3.765.685.684 1.441 1.026 2.36 1.026 1.1 0 1.784-.413 2.378-.954l-.54-.685c-.613.54-1.099.775-1.856.775a2.187 2.187 0 01-1.837-.972c-.45-.667-.72-1.676-.72-3.153 0-2.072.81-3.567 2.593-3.567.775 0 1.495.342 2.054.99l.54-.63c-.775-.81-1.567-1.152-2.63-1.152-1.243 0-2.18.486-2.792 1.387M135.83 45.537c0 .432.36.792.792.792a.788.788 0 00.794-.792.8.8 0 00-.793-.792.799.799 0 00-.792.792m.27-2.828l1.009.162v-9.133h-1.01zM139.72 38.296c0 1.53.342 2.558 1.063 3.404.612.72 1.44 1.207 2.54 1.207.954 0 1.71-.378 2.25-.918.684-.721 1.027-1.568 1.027-3.585v-.198h-5.763v-.468c.018-.955.252-1.73.594-2.234.485-.721 1.296-1.117 2.305-1.117.9 0 1.658.253 2.27.81l.397-.63c-.757-.648-1.712-1.008-2.865-1.008-2.468 0-3.819 1.909-3.819 4.737m5.837.649c0 1.08-.18 1.765-.469 2.233-.343.559-.99.955-1.819.955-1.352 0-2.342-1.063-2.432-3.188zM143.989 5.403h-3.35l-8.196 24.625h3.777l4.705-14.79a41.09 41.09 0 00.926-3.242c.178-.784.32-1.355.392-1.853h.214c.392 1.603.89 3.278 1.497 5.13l4.81 14.755h3.564zM157.597 5.117c-1.282 0-2.102.393-2.779 1.354-.535.75-.677 1.354-.677 3.101v16.18c0 2.53-.107 3.741-.392 5.131l3.42.713c.321-1.177.321-2.887.321-5.097V9.892c0-1.247.107-1.888.571-2.209.25-.178.642-.213.998-.142l.57-2.03c-.677-.287-1.247-.394-2.032-.394M173.776 4.725c-1.104.428-1.96 1.32-2.388 2.566-.463-.57-1.96-2.352-5.06-2.352-3.565 0-5.774 1.818-5.774 5.24 0 4.133 3.315 6.342 9.088 6.342.428 0 .784 0 1.247-.036v1.176c0 2.103-.284 3.528-2.779 3.528-1.89 0-4.027-.926-5.489-2.03l-1.497 2.351c1.746.998 4.027 2.352 7.484 2.352 2.602 0 4.491-.962 5.168-2.85.284-.785.356-1.39.356-3.137 0-1.283-.142-4.027-.142-6.629 0-2.458.07-3.456 1.46-4.31zm-4.027 9.587c-2.459 0-3.956-.464-4.668-1.284-.679-.783-.927-1.425-.927-2.6 0-1.96.997-3.1 2.815-3.1 1.497 0 2.922.925 3.743 2.35l.107 4.562c-.5.036-.786.072-1.07.072M190.7 4.725c-1.105.428-1.96 1.32-2.388 2.566-.463-.57-1.96-2.352-5.061-2.352-3.564 0-5.773 1.818-5.773 5.24 0 4.133 3.315 6.342 9.088 6.342.428 0 .784 0 1.247-.036v1.176c0 2.103-.284 3.528-2.78 3.528-1.89 0-4.026-.926-5.488-2.03l-1.497 2.351c1.746.998 4.027 2.352 7.484 2.352 2.602 0 4.49-.962 5.168-2.85.284-.785.356-1.39.356-3.137 0-1.283-.142-4.027-.142-6.629 0-2.458.07-3.456 1.46-4.31zm-4.027 9.587c-2.46 0-3.956-.464-4.668-1.284-.68-.783-.928-1.425-.928-2.6 0-1.96.998-3.1 2.816-3.1 1.497 0 2.922.925 3.743 2.35l.106 4.562c-.5.036-.785.072-1.07.072M205.7 5.474v12.045c0 1.604-.142 2.174-.57 2.744-.356.464-.998.713-1.818.713-1.283 0-3.206-.998-4.42-2.281V5.474h-3.241v13.293c0 2.138-.18 2.957-.678 4.24l3.1.856c.429-.856.606-1.64.606-2.744 1.14.962 1.64 1.354 2.317 1.746a6.621 6.621 0 003.314.89c1.89 0 3.564-.997 4.205-2.53.286-.641.428-1.425.428-2.244V5.474zM224.656 5.474c-.179.535-.214.784-.32 1.675-1.249-1.318-2.709-1.96-4.599-1.96-4.562 0-7.233 3.42-7.233 9.05 0 3.85 1.318 6.808 3.741 8.377 1.104.712 2.21 1.033 3.492 1.033 1.711 0 3.136-.606 4.348-2.067 0 .499-.07 1.924-.07 3.136v6.949l3.278-.534V11.46c0-2.887.107-4.883.498-5.987zm-.678 13.863c-.926 1.105-2.102 1.675-3.777 1.675-1.355 0-2.424-.677-3.1-1.818-.677-1.176-.928-2.601-.928-4.918 0-3.457.428-4.418 1.39-5.417.607-.641 1.425-.926 2.638-.926 1.888 0 3.172.998 3.777 2.067zM234.559 13.706v-.428c0-1.533.214-2.708.749-3.564.927-1.425 2.387-2.102 4.098-2.102 1.676 0 3.1.57 4.383 1.711l1.248-1.96c-1.746-1.533-3.848-2.28-6.166-2.28-4.952 0-7.981 3.598-7.981 9.443 0 3.1.605 5.096 2.137 6.913 1.427 1.675 3.173 2.46 5.382 2.46 1.995 0 3.599-.643 4.847-1.925 1.567-1.604 2.137-3.599 2.174-7.698v-.57zm6.344 6.45c-.57.713-1.425 1.247-2.566 1.247-2.495 0-3.741-2.03-3.741-5.274h7.412c0 1.711-.393 3.136-1.105 4.027M256.543 20.442c-.32.107-.57.178-.926.178-1.996 0-3.706-1.675-3.706-3.635V5.474h-3.278v13.114c0 2.175-.25 3.35-.678 4.456l3.171.819c.321-.677.606-1.853.606-2.744v-.321c1.426 2.067 2.958 3.1 4.848 3.1.427 0 .818-.071 1.104-.178zM261.743 13.706v-.428c0-1.533.214-2.708.748-3.564.928-1.425 2.388-2.102 4.1-2.102 1.675 0 3.1.57 4.382 1.711l1.248-1.96c-1.746-1.533-3.848-2.28-6.166-2.28-4.952 0-7.98 3.598-7.98 9.443 0 3.1.603 5.096 2.136 6.913 1.427 1.675 3.173 2.46 5.382 2.46 1.995 0 3.6-.643 4.847-1.925 1.567-1.604 2.137-3.599 2.173-7.698v-.57zm6.344 6.45c-.57.713-1.425 1.247-2.566 1.247-2.495 0-3.74-2.03-3.74-5.274h7.411c0 1.711-.393 3.136-1.105 4.027M285.868 5.474v12.045c0 1.604-.142 2.174-.57 2.744-.356.464-.997.713-1.818.713-1.283 0-3.206-.998-4.42-2.281V5.474h-3.241v13.293c0 2.138-.18 2.957-.678 4.24l3.1.856c.429-.856.606-1.64.606-2.744 1.14.962 1.64 1.354 2.317 1.746a6.621 6.621 0 003.314.89c1.89 0 3.564-.997 4.205-2.53.286-.641.428-1.425.428-2.244V5.474zM71.09 5.082c-6.772 0-10.122 5.381-10.122 12.758 0 8.09 3.92 12.615 9.942 12.615 7.235 0 10.086-6.022 10.086-12.865 0-7.519-3.67-12.508-9.907-12.508m-.179 22.701c-4.347 0-6.093-3.243-6.093-9.55 0-6.274 1.461-10.549 6.272-10.549 3.813 0 5.987 2.743 5.987 9.586 0 6.664-1.532 10.513-6.166 10.513M91.077 4.975c-4.775 0-7.733 3.635-7.733 9.444 0 5.773 2.958 9.408 7.662 9.408 5.274 0 7.841-4.205 7.841-9.587 0-5.666-3.03-9.265-7.77-9.265m-.07 16.321c-2.852 0-4.028-2.03-4.028-6.52 0-5.453 1.39-7.27 4.17-7.27 2.494 0 4.027 1.924 4.027 6.592 0 5.524-1.604 7.198-4.17 7.198M107.29 4.975c-2.176 0-4.598.677-6.665 1.89l1.175 2.351c1.711-.963 3.742-1.782 5.738-1.782 1.96 0 3.314 1.14 3.314 2.886 0 1.533-.926 2.424-2.993 2.816l-2.174.427c-2.815.57-4.348 2.317-4.348 4.954 0 3.28 2.602 5.56 6.451 5.56 2.174 0 4.17-.607 5.63-1.462l-1.105-2.316c-1.639.82-2.957 1.283-4.383 1.283-1.888 0-3.1-1.069-3.1-2.673 0-1.283.641-1.995 2.53-2.423l2.316-.535c3.28-.748 4.633-2.637 4.633-4.989 0-3.564-2.85-5.987-7.02-5.987M124.107 21.012h-3.528V10.25c0-2.21.534-2.887 2.316-2.887.606 0 1.105.107 1.676.356l.39-1.995a7.114 7.114 0 00-3.242-.748c-.926 0-2.352.249-3.136.962-.713.64-1.211 1.105-1.211 3.563v11.51h-2.138v2.318h2.138c0 1.389.035 3.207.213 4.56l3.386.785c-.142-1.283-.321-3.528-.321-5.345h4.348zM126.744 16.111h6.234v-2.396h-6.234z" fill="#4d4a4a"/></g></svg>
