<svg xmlns="http://www.w3.org/2000/svg" xmlns:xlink="http://www.w3.org/1999/xlink" viewBox="0 0 597 108"><defs><path id="a" d="M0 108h597V0H0z"/></defs><g fill="none" fill-rule="evenodd"><path fill="#231F20" d="M83 19v51c7.645-2.737 13.083-10.018 12.999-18.537L95.796 19H83zM57.768 70.997V21C50.325 23.708 45 30.826 45 39.205v26.403C45 76.318 53.683 85 64.396 85 73.233 85 80.662 79.078 83 70.997H57.768z"/><mask id="b" fill="#fff"><use xlink:href="#a"/></mask><path fill="#231F20" d="M0 83h13V18H0zm401 0h13V18h-13z" mask="url(#b)"/><path fill="#27AAE1" d="M170 57h29V44h-29z" mask="url(#b)"/><path fill="#231F20" d="M37 31V19.082A20.27 20.27 0 0030.496 18C21.753 18 14.376 23.483 12 31h25zm83.264 38.037h24.47v-38.22h-24.47v38.22zm18.556-51.014V18h-12.204C116.336 18 108 26.657 108 37.336v26.328c0 9.348 6.387 17.146 14.875 18.945V83h12.205v-.322c1.075.2 2.174.322 3.304.322C148.664 83 157 74.342 157 63.664V37.336c0-10.525-8.101-19.07-18.18-19.313zm149.445 51.014h24.47v-38.22h-24.47v38.22zm18.556-51.014V18h-12.204C284.335 18 276 26.657 276 37.336v26.328c0 10.525 8.102 19.07 18.18 19.313V83h12.203C316.665 83 325 74.342 325 63.664V37.336c0-10.525-8.102-19.07-18.18-19.313zm150 0V18h-12.204C434.335 18 426 26.658 426 37.336v26.328c0 10.525 8.101 19.07 18.18 19.313V83h12.204c8.084 0 14.941-5.36 17.508-12.839h-35.626V30.818h24.47v17.497h-23.812c2.617 7.39 9.439 12.668 17.46 12.668 10.282 0 18.616-8.658 18.616-19.337v-4.31c0-10.525-8.101-19.07-18.178-19.313M350.454 69.037v-38.22h36.175c-2.571-7.324-9.328-12.603-17.333-12.794V18h-12.392C346.464 18 338 26.657 338 37.336v26.328c0 10.602 8.345 19.201 18.681 19.324V83h12.394v-.012c8.515-.102 15.666-5.962 17.925-13.95h-36.546zM242.821 44.69h-19.999V32.071h38.168C258.442 24.478 251.28 19 242.82 19h-12.64C219.588 19 211 27.577 211 38.155c0 10.563 8.562 19.125 19.13 19.152h19.235v12.62h-37.36C214.552 77.523 221.719 83 230.18 83h12.64C253.415 83 262 74.425 262 63.845c0-10.578-8.586-19.155-19.18-19.155m265.932 24.483V31.324h24.125c-.012-.03-.02-.063-.03-.093H534V18.615h-25.248V6h-12.404v12.794c-5.46 2.12-9.697 6.745-11.348 12.507h11.348v32.55c0 10.575 8.43 19.149 18.827 19.149 8.579 0 15.805-5.843 18.073-13.827h-24.496zm88.21 19.933l.033-.052V21H584.5v49.031h-23.982V21.14a19.06 19.06 0 00-12.516 17.858H548v26.567h.047c.493 10.098 8.76 18.139 18.916 18.139 7.934 0 14.712-4.913 17.538-11.873v24.615h-23.982c2.598 7.313 9.524 12.555 17.684 12.555C588.585 109 597 100.53 597 90.083c0-.329-.022-.652-.038-.977" mask="url(#b)"/><path fill="#27AAE1" d="M414 13c-7.18 0-13-5.82-13-13h13v13z" mask="url(#b)"/></g></svg>