<svg xmlns="http://www.w3.org/2000/svg" viewBox="0 0 463.6775 354.19"><path fill="#1e64c8" d="M76.1965 121.389h9.2456V61.3626h-9.2456zm-18.4913 0h9.2456V61.3626h-9.2456zm-18.4913 0h9.2456V61.3626H39.214zm-18.4912 0h9.2455V61.3626h-9.2455zm73.9651 0h9.2456V61.3626h-9.2456zm18.4913 0h9.2456V61.3626h-9.2456zm18.4987 0h9.2456V61.3626h-9.2456zM11.2545 139.8876h139.137v-9.253H11.2545zm129.669-87.7706H20.7228l-9.2456-9.2457h138.692l-9.2455 9.2457M2.009 158.379h157.6282v-9.253H2.009zM159.6372 27.9093L80.823.0019 2.009 27.9093v9.824L80.823 9.8259l78.8142 27.9074v-9.824M281.143 202.0715c4.0854-.0148 7.9408 1.3197 9.7054 2.7136v-8.3337c-1.7646-1.0899-6.1094-2.2984-10.5135-2.2984-12.2706 0-19.0325 6.9842-19.0325 17.1049 0 8.4449 3.581 12.5005 9.3345 17.4606l5.2643 4.5524c4.3448 3.633 7.0361 6.4357 7.0361 11.8704 0 6.3614-4.1965 8.8823-10.5061 8.8823-4.7748 0-8.7414-1.3271-11.0324-2.9065v8.482c2.0167 1.1567 6.2057 2.3504 11.8628 2.3356 12.241-.0297 18.9955-6.9844 19.0103-17.1049.0148-8.43-3.5737-12.493-9.3346-17.4533l-5.2566-4.5597c-4.3523-3.722-7.0586-6.4208-7.0438-11.8481.0223-6.3837 4.1892-8.8824 10.5061-8.8972M2.009 241.019v-45.6647h9.2531v46.065c0 9.6609 3.3143 12.471 10.0539 12.471s10.0611-2.8101 10.0611-12.471v-46.065h9.253v45.6647c0 14.8805-6.2354 20.9231-19.3141 20.9231-13.279 0-19.307-5.835-19.307-20.9231m50.588-45.6647h10.6543l20.6266 52.1077c-.7044-5.3309-1.3124-11.5737-1.3124-17.4087v-34.699h8.8528v65.3868H80.7564L59.937 208.433c.808 5.3309 1.505 11.67 1.505 17.609v34.699h-8.8452v-65.3868m51.9224 65.3793h9.253v-65.3794h-9.253zm17.8463-65.3793h9.6609l8.2446 34.002c1.2086 5.1307 2.7138 13.7757 3.6183 20.6265.9118-6.8508 2.417-15.4958 3.8257-20.6266l8.1484-34.002h9.3494l-16.5933 65.3869h-9.6607l-16.5933-65.3868m51.4478 0h30.5768v7.8517h-21.3236v20.0112h17.2012v7.748h-17.2012v21.9242h21.3236v7.8517h-30.5768v-65.3868m50.5138 7.8517v23.0362h4.9305c7.2439 0 12.0705-1.5198 12.0705-11.5662 0-9.965-4.8266-11.47-12.0705-11.47zm-9.253-7.8517h15.088c12.0705 0 20.7157 4.5374 20.7157 19.3217 0 10.3504-5.0269 15.3773-11.3588 17.698l13.8796 28.367h-10.5654l-12.2707-26.6619h-6.2354v26.662h-9.253v-65.3868m88.1857 65.3793h9.253v-65.3794h-9.253zm18.0317-65.3793h37.5164v7.8517h-14.1762v57.535h-9.253v-57.535h-14.0872v-7.8517m45.9835 0h30.5767v7.8517H376.528v20.0112h17.2087v7.748H376.528v21.9242h21.3237v7.8517H367.275v-65.3868m41.1643 65.3793h9.253v-65.3794h-9.253zm17.7275-65.3793h37.5092v7.8517h-14.1836v57.535h-9.2532v-57.535h-14.0724v-7.8517M-.0004 320.3002c0-25.75 6.836-33.8984 23.837-33.8984 4.8194 0 9.9502 1.3124 12.167 2.6174v8.5486c-2.4171-1.4087-7.0436-2.9212-11.47-2.9212-10.8619 0-14.9842 4.026-14.9842 25.6535 0 21.42 2.9211 25.839 12.3745 25.839 2.9137 0 5.3307-.393 7.14-.9046V323.414h-9.661v-7.8443h18.914v35.2995c-1.913 1.2085-9.557 3.3217-16.2966 3.3217-17.6981 0-22.0207-9.2532-22.0207-33.8909m49.3571-32.6897h30.5767v7.8443H58.6098v20.0187H75.811v7.7406H58.6098v21.9314h21.3236v7.837H49.3567v-65.372m41.2607 0h10.6617l20.6193 52.093c-.7044-5.3309-1.305-11.559-1.305-17.394v-34.699h8.8527v65.372h-10.6617L97.965 300.6894c.8008 5.3234 1.505 11.6627 1.505 17.6015v34.6917h-8.8526v-65.3721m47.2959 0h37.5164v7.8443h-14.1835v57.5278h-9.253v-57.5278h-14.0799v-7.8443"/></svg>
