<svg xmlns="http://www.w3.org/2000/svg" height="461.674" width="788.782"><defs><clipPath id="a"><path d="M.209 247.023h591.586V593.28H.21z"/></clipPath><clipPath id="b"><path d="M0 247.023h595v347.954H0z"/></clipPath></defs><g clip-path="url(#a)" transform="matrix(1.33333 0 0 -1.33333 -.278 791.038)"><path d="M260.63 458.27l-4.307 42.192c-.584 5.414-5.477 9.391-10.89 8.859l-54.824-5.675c-5.414-.533-8.048 3.058-5.811 8.041l22.526 50.272c2.238 4.987-.01 10.888-4.993 13.122l-38.668 17.335c-4.986 2.233-10.887-.01-13.121-4.997l-22.53-50.269c-2.234-4.982-6.646-5.466-9.82-1.016l-32.3 44.646c-3.18 4.402-9.443 5.414-13.848 2.196l-34.357-24.823c-4.402-3.226-5.41-9.447-2.234-13.849l32.3-44.646c3.177-4.401 1.357-8.476-4.064-9.057l-54.778-5.623c-5.442-.532-9.433-5.424-8.855-10.887l4.31-42.144c.578-5.467 5.478-9.44 10.888-8.856l54.82 5.616c5.414.588 8.007-3.055 5.808-8.038l-22.527-50.268c-2.23-4.987.014-10.88 4.993-13.07l38.672-17.338c4.986-2.234 10.887.01 13.121 4.997l22.53 50.272c2.206 4.986 6.646 5.414 9.823 1.016l32.3-44.653c3.174-4.45 9.399-5.41 13.849-2.234L223 374.252c4.401 3.177 5.41 9.399 2.237 13.797l-32.304 44.653c-3.177 4.45-1.381 8.521 4.068 9.057l54.775 5.62c5.466.584 9.443 5.476 8.855 10.89" fill="#141111"/></g><g clip-path="url(#b)" fill="#141111" transform="matrix(1.33333 0 0 -1.33333 -.278 791.038)"><path d="M537.904 277.25l.571-9.54h-.313l-3.027 9.495-10.575 27.043h-10.706v-57.225h10.15v27.047l-.578 9.485h.317l2.95-9.169 10.623-27.363h10.731v57.225h-10.143zm-91.765-15.933c0-2.54-2.224-4.76-5.178-4.76h-5.63v15.655h5.63c3.605 0 5.178-3.23 5.178-4.858zm-10.808 33.355h5.95c2.54 0 4.58-1.768 4.58-3.99v-4.904c0-2.223-2.04-3.99-4.58-3.99h-5.95zm20.794-8.577v4.767c0 7.488-6.214 13.386-14.885 13.386h-16.386v-57.225h16.107c8.173 0 15.703 5.72 15.703 14.294v6.128c0 3.949-1.785 7.22-4.238 9.76 2.064 2.45 3.699 5.532 3.699 8.89zm30.62 70.026h-.313l-8.991 21.103h-11.525v-57.27h10.119v34.034l-.543 7.352h.32l6.716-16.11h8.166l6.719 16.11h.317l-.592-7.352v-34.034h10.167v57.27h-11.527zm-96.85-82.549l5.178 21.1h1.76l5.178-21.1zm-2.132 30.676l-8.894-32.22v-25.005h10.122v16.973h13.928v-16.973h10.122v25.004l-8.893 32.22zm48.355 63.4h1.788l5.174-21.1h-12.12zm-6.065-30.679h13.9v-17.015h10.154v25.05l-8.936 32.22h-16.346l-8.89-32.22v-25.05h10.118zm48.839-63.397l5.177 21.1h1.806l5.136-21.1zm-2.137 30.676l-8.887-32.22v-25.005h10.136v16.973h13.915v-16.973h10.118v25.004l-8.893 32.22zm-86.244 63.4h1.817l5.132-21.1h-12.074zm-6.037-30.679h13.887v-17.015h10.167v25.05l-8.942 32.22H383.25l-8.943-32.22v-25.05h10.167zm-19.481-7.439h-17.924v47.694h-10.396v-57.27h28.32zm192.999-25.282v-9.576h11.621v-47.649h10.484v47.65h11.698v9.575zm-202.961-24.37c0-2.13-1.859-3.86-4.176-3.86h-6.44v18.654h6.44c2.317 0 4.176-1.715 4.176-3.81zm10.58.32v10.26c0 7.666-6.495 13.79-14.571 13.79h-16.928v-57.225h10.302v19.434h4.263l8.31-19.434h11.294l-9.392 21.518c3.995 2.442 6.723 6.938 6.723 11.656zm164.214 82.642c0 3.173 2.857 5.623 6.354 5.623 3.677 0 6.398-3.264 6.398-7.346h10.307c0 10.21-7.363 16.925-16.705 16.925-9.301 0-16.744-6.851-16.744-15.926 0-18.02 23.72-15.703 23.72-27.506 0-3.04-2.954-5.898-6.646-5.898h-.887c-3.682 0-6.702 3.045-6.702 6.49v2.585h-10.397v-2.585c0-8.758 7.537-16.062 16.928-16.062h1.323c9.387 0 16.827 7.304 16.827 16.062 0 18.786-23.776 18.198-23.776 27.638zM311.978 261.317c0-2.54-2.23-4.76-5.177-4.76h-5.623v15.655h5.623c3.58 0 5.177-3.23 5.177-4.858zm-10.8 33.355h5.936c2.547 0 4.586-1.768 4.586-3.99v-4.904c0-2.223-2.039-3.99-4.586-3.99h-5.936zm20.73-8.577v4.767c0 7.488-6.217 13.386-14.885 13.386h-16.332v-57.225h16.11c8.166 0 15.703 5.72 15.703 14.294v6.128c0 3.949-1.816 7.22-4.27 9.76 2.04 2.45 3.675 5.532 3.675 8.89zm-7.351 67.395l-6.211-24.1h-1.138l-6.215 24.1v23.734h-10.302v-25.053l9.572-32.217h15.02l9.577 32.217v25.053h-10.303V353.49M563.674 337.714h22.746v9.565h-22.746z"/></g></svg>
