<svg xmlns="http://www.w3.org/2000/svg" viewBox="0 0 263.2026 110.8813"><defs><clipPath id="a"><path d="M0 283.46h283.46V0H0z"/></clipPath></defs><path fill="#353132" d="M103.3094 28.3847L94.8027 53.074h-5.056L81.24 28.3847h4.576l6.4587 18.748 6.4587-18.748zM106.2676 26.3547l3.764-.3694h.5534v26.72h-4.3174z"/><g clip-path="url(#a)" transform="matrix(1.33333 0 0 -1.33333 -49.6822 244.884)"><path fill="#353132" d="M130.8032 149.9463c-1.509 0-2.685.028-3.488-.166-.803-.193-1.245-.608-1.245-1.453 0-1.177.844-1.827 2.02-1.827.401 0 1.08.083 1.661.443.581.359 1.052.982 1.052 2.131zm3.861-6.089c-.54 0-1.066.083-1.605.318-.54.221-1.08.595-1.62 1.19-.567-.429-1.065-.803-1.66-1.065-.609-.277-1.288-.443-2.215-.443-.664 0-1.398.097-2.103.346-.706.249-1.357.664-1.841 1.343-.484.677-.789 1.619-.789 2.891 0 1.26.305 2.271 1.079 2.948.776.678 2.035 1.052 3.959 1.052.775 0 1.674 0 2.948-.11v.72c0 .996-.319 1.688-.831 2.103-.512.415-1.204.581-1.979.581-.609 0-1.287-.111-1.951-.29-.665-.181-1.329-.415-1.896-.692l-.761 2.823c1.508.72 3.432 1.218 5.245 1.218 1.425 0 2.754-.305 3.75-1.052.983-.748 1.606-1.924 1.606-3.682v-5.341c0-.679.221-1.164.609-1.496.374-.332.899-.525 1.522-.65zM144.9355 149.9463c-1.508 0-2.684.028-3.487-.166-.803-.193-1.245-.608-1.245-1.453 0-1.177.844-1.827 2.021-1.827.401 0 1.078.083 1.66.443.58.359 1.051.982 1.051 2.131zm3.861-6.089c-.539 0-1.064.083-1.605.318-.539.221-1.078.595-1.619 1.19-.567-.429-1.065-.803-1.66-1.065-.61-.277-1.287-.443-2.215-.443-.664 0-1.397.097-2.103.346-.706.249-1.357.664-1.841 1.343-.485.677-.789 1.619-.789 2.891 0 1.26.304 2.271 1.08 2.948.774.678 2.034 1.052 3.958 1.052.775 0 1.675 0 2.947-.11v.72c0 .996-.317 1.688-.83 2.103-.512.415-1.204.581-1.978.581-.61 0-1.288-.111-1.953-.29-.664-.181-1.328-.415-1.895-.692l-.762 2.823c1.509.72 3.433 1.218 5.246 1.218 1.426 0 2.754-.305 3.75-1.052.982-.748 1.605-1.924 1.605-3.682v-5.341c0-.679.223-1.164.61-1.496.373-.332.9-.525 1.521-.65zM152.2051 158.4995h2.74l.319-1.121c1.328.886 2.976 1.398 4.582 1.398 1.369 0 2.683-.374 3.638-1.204.955-.831 1.578-2.118 1.578-3.904v-9.535h-3.238v8.581c0 1.066-.387 1.813-.982 2.284-.596.47-1.426.664-2.27.664-1.107 0-2.242-.332-3.129-.886v-10.643h-3.238zM177.3281 155.4546c-.816.208-1.646.305-2.297.305-1.232 0-2.269-.36-2.99-1.108-.719-.747-1.135-1.854-1.135-3.349 0-1.094.305-2.159.887-2.975.582-.817 1.439-1.357 2.588-1.357.982 0 2.076.347 2.947.886zm3.238-11.321h-2.449l-.58 1.079c-1.107-.83-2.272-1.355-3.861-1.355-2.063 0-3.6.83-4.61 2.103-1.009 1.274-1.508 2.99-1.508 4.761 0 2.712.817 4.733 2.172 6.076 1.358 1.328 3.266 1.979 5.481 1.979.65 0 1.357-.042 2.117-.139v5.259l2.74.277h.498zM192.459 152.6729c-.098 1.052-.443 1.799-.941 2.297-.498.485-1.135.692-1.758.692-.664 0-1.342-.221-1.897-.705-.566-.499-1.023-1.246-1.203-2.284zm2.227-4.816v-3.142c-.651-.318-1.342-.512-2.047-.65-.721-.139-1.426-.207-2.035-.207-1.993 0-3.834.622-5.19 1.854-1.357 1.232-2.215 3.113-2.215 5.605 0 2.421.803 4.276 2.022 5.549 1.203 1.26 2.822 1.911 4.441 1.911.457 0 1.274-.056 2.117-.347.846-.29 1.772-.844 2.465-1.799.692-.955 1.176-2.366 1.176-4.359v-2.16h-8.719c.262-1.162.858-1.951 1.633-2.449.762-.498 1.687-.706 2.615-.706 1.219 0 2.506.346 3.614.942zM206.3418 154.9287c-.816.498-1.619.72-2.436.72-1.05 0-2.019-.388-2.892-1.052v-10.463h-3.238v14.366h2.74l.332-1.176c.996.844 2.215 1.453 3.654 1.453.387 0 .928-.028 1.453-.125.526-.097 1.037-.235 1.412-.443zM216.4902 152.6729c-.098 1.052-.443 1.799-.941 2.297-.498.485-1.135.692-1.758.692-.664 0-1.342-.221-1.897-.705-.566-.499-1.023-1.246-1.203-2.284zm2.227-4.816v-3.142c-.651-.318-1.342-.512-2.047-.65-.721-.139-1.426-.207-2.035-.207-1.993 0-3.834.622-5.19 1.854-1.357 1.232-2.215 3.113-2.215 5.605 0 2.421.803 4.276 2.022 5.549 1.203 1.26 2.822 1.911 4.441 1.911.457 0 1.274-.056 2.117-.347.846-.29 1.772-.844 2.465-1.799.692-.955 1.176-2.366 1.176-4.359v-2.16h-8.719c.262-1.162.858-1.951 1.633-2.449.762-.498 1.687-.706 2.615-.706 1.219 0 2.506.346 3.614.942zM221.8066 158.4995h2.74l.319-1.121c1.328.886 2.976 1.398 4.582 1.398 1.369 0 2.683-.374 3.638-1.204.955-.831 1.578-2.118 1.578-3.904v-9.535h-3.238v8.581c0 1.066-.387 1.813-.982 2.284-.596.47-1.426.664-2.27.664-1.107 0-2.242-.332-3.129-.886v-10.643h-3.238zM109.8286 131.4883l-2.805-8.157h-1.627l-2.797 8.157h1.257l2.357-6.86 2.358 6.86zM115.7832 128.2031c-.008.629-.094 1.202-.338 1.627-.244.424-.644.684-1.281.684-.62 0-1.115-.245-1.493-.653-.377-.408-.62-.99-.722-1.658zm1.195-1.101h-5.085c.063-.942.393-1.641.872-2.105.48-.464 1.124-.691 1.824-.691.731 0 1.453.204 2.2.581l.024-.008v-1.123c-.849-.417-1.588-.582-2.342-.582-1.014 0-1.965.338-2.656 1.045-.692.708-1.132 1.784-1.132 3.293 0 1.163.267 2.208.841 2.947.566.738 1.438 1.186 2.664 1.186.841 0 1.422-.213 1.839-.55.408-.338.652-.801.786-1.313.133-.511.165-1.068.165-1.579zM119.1523 131.4883h.817l.283-.928c.605.699 1.25 1.085 2.004 1.085.196 0 .44-.024.684-.071.243-.047.479-.126.668-.212l-.425-1.093c-.306.15-.785.252-1.123.252-.716 0-1.274-.456-1.69-1.093v-6.097h-1.218zM126.3491 124.541c.534-.212 1.061-.251 1.595-.251.817 0 1.517.307 2.02.872.495.558.785 1.375.785 2.404 0 .81-.18 1.54-.581 2.076-.401.534-1.014.872-1.886.872-.817 0-1.516-.291-1.933-.888zm-1.218 10.012l1.139.157h.079v-3.78c.573.44 1.249.715 2.098.715 1.069 0 1.949-.456 2.562-1.203.612-.754.959-1.798.959-2.985 0-1.155-.323-2.225-.998-3.002-.676-.786-1.706-1.281-3.112-1.281-1.014 0-1.973.267-2.727.582zM138.3232 128.2031c-.008.629-.095 1.202-.338 1.627-.244.424-.644.684-1.281.684-.621 0-1.116-.245-1.493-.653-.377-.408-.621-.99-.723-1.658zm1.194-1.101h-5.085c.064-.942.394-1.641.873-2.105.48-.464 1.123-.691 1.824-.691.73 0 1.453.204 2.2.581l.023-.008v-1.123c-.848-.417-1.588-.582-2.342-.582-1.013 0-1.964.338-2.656 1.045-.691.708-1.132 1.784-1.132 3.293 0 1.163.268 2.208.842 2.947.566.738 1.438 1.186 2.663 1.186.841 0 1.423-.213 1.839-.55.409-.338.653-.801.786-1.313.134-.511.165-1.068.165-1.579zM145.7549 128.2031c-.008.629-.094 1.202-.338 1.627-.243.424-.644.684-1.28.684-.621 0-1.116-.245-1.493-.653-.378-.408-.621-.99-.724-1.658zm1.194-1.101h-5.084c.063-.942.393-1.641.872-2.105.48-.464 1.124-.691 1.824-.691.73 0 1.454.204 2.2.581l.023-.008v-1.123c-.848-.417-1.587-.582-2.342-.582-1.013 0-1.963.338-2.655 1.045-.692.708-1.132 1.784-1.132 3.293 0 1.163.267 2.208.841 2.947.566.738 1.438 1.186 2.664 1.186.841 0 1.422-.213 1.839-.55.408-.338.652-.801.785-1.313.134-.511.165-1.068.165-1.579zM148.7148 134.5527l1.132.157h.079v-11.379h-1.211zM157.4287 130.207c-.55.212-1.084.322-1.595.322-.817 0-1.516-.259-2.011-.778-.503-.519-.794-1.296-.794-2.326 0-.809.18-1.587.581-2.16.401-.575 1.014-.952 1.886-.952.818 0 1.501.284 1.933.888zm1.219-6.876h-.771l-.252.723c-.62-.535-1.351-.872-2.294-.872-1.069 0-1.949.495-2.562 1.289-.612.785-.958 1.87-.958 3.056 0 1.156.33 2.177 1.006 2.923.675.747 1.697 1.195 3.103 1.195.534 0 1.03-.071 1.509-.165v3.073l1.14.157h.079zM161.396 131.488h1.21v-8.157h-1.21zm-.236 2.224c0 .227.094.44.251.597.15.149.361.244.59.244.228 0 .439-.095.597-.244.157-.157.252-.37.252-.597 0-.228-.095-.433-.252-.582-.158-.156-.369-.251-.597-.251a.818.818 0 0 0-.59.251.796.796 0 0 0-.251.582M165.3633 131.4883h.816l.229-.755c.338.22.746.448 1.179.621.431.173.88.291 1.264.291.779 0 1.493-.197 2.028-.683.527-.488.857-1.258.857-2.413v-5.218h-1.219v5.147c0 .785-.204 1.296-.518 1.611-.323.314-.77.432-1.265.432-.378 0-.763-.102-1.132-.252-.369-.149-.707-.345-1.021-.534v-6.404h-1.218zM176.668 130.5605c-.604 0-1.068-.228-1.383-.55a1.6643 1.6643 0 0 1-.471-1.155c0-.408.165-.833.479-1.155.314-.323.778-.542 1.399-.542.605 0 1.061.219 1.368.542.306.314.455.73.455 1.139 0 .408-.158.841-.463 1.171-.315.33-.779.55-1.384.55m-1.288-6.569c-.441-.503-.724-1.14-.724-1.705 0-.48.134-.897.449-1.187.314-.291.809-.464 1.532-.464.817 0 1.516.268 2.019.653.495.376.779.879.779 1.375 0 .605-.354.935-.92 1.124-.574.18-1.36.204-2.216.204zm2.004 1.045c1.123 0 1.948-.259 2.491-.684.534-.424.801-1.006.801-1.611 0-.888-.542-1.682-1.336-2.247-.793-.574-1.847-.919-2.86-.919-.935 0-1.69.29-2.208.761-.519.464-.81 1.117-.81 1.839 0 .66.353 1.447.975 2.074-.22.126-.385.339-.496.582-.11.244-.172.503-.172.731 0 .44.204.943.589 1.423-.22.227-.393.542-.503.887-.11.338-.172.708-.172 1.053 0 .779.305 1.454.84 1.942.535.487 1.289.778 2.177.778.605 0 1.139-.134 1.579-.378.346.26.739.472 1.101.613.361.142.707.212.981.212l.363-1.029c-.433-.07-.998-.251-1.534-.589.307-.44.472-.951.472-1.517 0-.778-.314-1.493-.848-2.019-.542-.527-1.305-.857-2.193-.857-.573 0-1.076.141-1.509.354-.18-.229-.275-.456-.275-.668 0-.409.354-.731 1.006-.731zM197.8037 131.4883l-2.586-8.157h-1.509l-1.814 6.208-1.816-6.208h-1.516l-2.578 8.157h1.178l2.154-6.813 2.019 6.813h1.116l2.02-6.813 2.161 6.813zM203.7646 128.2031c-.008.629-.094 1.202-.338 1.627-.243.424-.644.684-1.28.684-.621 0-1.116-.245-1.493-.653-.378-.408-.621-.99-.724-1.658zm1.194-1.101h-5.084c.063-.942.393-1.641.872-2.105.48-.464 1.124-.691 1.824-.691.73 0 1.454.204 2.2.581l.023-.008v-1.123c-.848-.417-1.587-.582-2.342-.582-1.013 0-1.963.338-2.655 1.045-.692.708-1.132 1.784-1.132 3.293 0 1.163.267 2.208.841 2.947.566.738 1.438 1.186 2.664 1.186.841 0 1.422-.213 1.839-.55.408-.338.652-.801.785-1.313.134-.511.165-1.068.165-1.579zM207.1348 131.4883h.817l.283-.928c.605.699 1.25 1.085 2.004 1.085.197 0 .44-.024.684-.071.243-.047.479-.126.668-.212l-.425-1.093c-.306.15-.786.252-1.124.252-.715 0-1.272-.456-1.689-1.093v-6.097h-1.218zM218.7861 123.1738c-.408.023-.888.283-1.367.66-.48.369-.983.872-1.422 1.383-.448.503-.857 1.021-1.148 1.438-.149.205-.267.377-.353.527-.095.149-.149.243-.165.291v-4.142h-1.218v11.167l1.139.212h.079v-7.088l3.237 3.866h1.556l-3.316-3.945c.04-.181.298-.557.676-.998.377-.448.864-.959 1.367-1.391.503-.432 1.022-.778 1.438-.904zM219.8301 131.4883h.903v1.461l1.14.213h.079v-1.674h2.263v-1.132h-2.263v-4.008c0-.746.165-1.249.424-1.579.26-.33.629-.471 1.045-.471.472 0 .998.18 1.532.487l.33-1.116c-.691-.315-1.375-.495-2.012-.495-.714 0-1.336.219-1.798.73-.464.503-.74 1.305-.74 2.444v4.008h-.903zM102.1846 100.502l-28.238 83.024.402.137 28.238-83.024zM74.1245 142.2539c-2.037 1.555-2.991-.012-4.272.092-1.084.086-2.1 1.836-2.939 1.418-1.601-.815.642-3.696 1.615-4.283.867-.52 1.958-.998 2.22-1.12 1.287-.601 1.799-1.511 1.961-2.933.041-.326 0-1.07-.08-1.416-.587-2.492-4.953-4.756-7.46-3.043-1.181.808-2.259 1.853-2.632 3.703-.675 3.275-3.039 5.684-3.797 8.889-.461 1.947-.802 4.002-1.31 5.961-.517 2.025-1.049 4.031-1.473 5.871-.387 1.711-1.2 4.267-1.789 5.825-2.395 6.252-3.477 5.798-3.477 5.798s.872-1.736 4.043-17.059c.131-.627 1.284-7.377 2.125-9.599.301-.797.827-2.499 1.172-3.25 1.009-2.196 3.672-5.524 3.848-8.524.101-1.734.299-3.17.34-4.482.025-.385.195-1.95.445-2.645.65-1.83 5.9-7.734 11.474-7.734v4.474c-5.538 0-10.755 3.104-10.884 3.43-.08.147.288 2.264.663 3.205.726 1.822 2.094 3.488 4.5 3.666 2.683.193 4.302-.586 5.721-.586zM50.0747 158.4932c-.203-3.351-5.389-7.933-7.014-10.87-.796-1.445-1.768-3.926-2.019-5.363-.69-3.998.185-6.483 1.16-8.823 1.716-4.113-.232-5.625 1.109-4.791 1.661 1.354 1.409 4.51 1.286 6.481-.096 1.599-.204 3.418.039 5.324.46 3.566 2.62 7.395 4.463 10.07 2.189 3.192 1.394 6.493.976 7.972M51.1196 148.9766s.553-2.654-1.789-9.48c-6.125-17.854 5.575-19.545 8.906-23.743 0 0 1.289 1.819-4.017 7.639-1.938 2.127-3.686 6.813-2.163 13.506 2.202 9.691-.937 12.078-.937 12.078M39.5376 160.6816c-.28 1.055-.365 1.998-.304 2.84.283 4.195 4.093 5.893 5.042 6.518 0 0 1.713 1.173 1.934 2.358 0 0 1.754-4.415-2.268-6.945-2.041-1.285-3.427-2.791-4.404-4.771M49.145 164.7363c.217-.426 1.796-2.737-4.671-8.074-6.454-5.33-4.438-9.141-4.438-9.141s-6.89 3.832 1.046 10.453c7.934 6.616 6.308 7.957 6.308 7.957s1.136.055 1.755-1.195M61.02 161.125c.094.25.229.049.512.227.301.285.611.752 1.101.909.352.108.834.057 1.163-.07.219-.054.086-.617-.078-.761-.349-.258-1.382.167-1.382-.607.043-1.268 1.715.04 2.589.004.427-3.095-4.666-2.243-3.905.298m-3.48 1.568c1.117-.146 1.828-3.631 4.412-4.388 1.9-.555 3.92-.254 4.368-1.397-.872-.463-.185-1.996.692-1.745.724 2.036 1.088 9.905-9.472 7.53"/></g></svg>
