<svg xmlns="http://www.w3.org/2000/svg" xmlns:xlink="http://www.w3.org/1999/xlink" viewBox="0 0 216 237.19"><defs><style>.cls-1{isolation:isolate;}.cls-2{fill:#89776d;}.cls-10,.cls-12,.cls-15,.cls-16,.cls-17,.cls-19,.cls-20,.cls-3{opacity:0.5;}.cls-10,.cls-11,.cls-12,.cls-13,.cls-15,.cls-16,.cls-17,.cls-19,.cls-20,.cls-3,.cls-5,.cls-6{mix-blend-mode:soft-light;}.cls-3{fill:url(#Naamloos_verloop_14);}.cls-4{fill:#e41922;}.cls-5{fill:url(#Naamloos_verloop_14-2);}.cls-6{fill:url(#Naamloos_verloop_14-3);}.cls-7{fill:#a43433;}.cls-8{fill:#635043;}.cls-9{fill:#ef8561;}.cls-10{fill:url(#Naamloos_verloop_14-4);}.cls-11{fill:url(#Naamloos_verloop_14-5);}.cls-12{fill:url(#Naamloos_verloop_14-6);}.cls-13{fill:url(#Naamloos_verloop_14-7);}.cls-14{fill:#766358;}.cls-15{fill:url(#Naamloos_verloop_14-8);}.cls-16{fill:url(#Naamloos_verloop_14-9);}.cls-17{fill:url(#Naamloos_verloop_14-10);}.cls-18{fill:#eb614c;}.cls-19{fill:url(#Naamloos_verloop_14-11);}.cls-21{fill:url(#Naamloos_verloop_14-12);}.cls-22{fill:url(#Naamloos_verloop_14-13);}.cls-23{fill:url(#Naamloos_verloop_14-14);}.cls-24{fill:#ece9e7;}.cls-25,.cls-28{fill:none;stroke-linecap:round;}.cls-25{stroke:#635043;stroke-width:2.56px;}.cls-25,.cls-26,.cls-28{stroke-miterlimit:10;}.cls-26{fill:#87bd24;stroke:#89776d;stroke-width:0.44px;}.cls-27{fill:url(#Naamloos_verloop_5);}.cls-28{stroke:#ece9e7;stroke-width:0.89px;}.cls-29{fill:url(#Naamloos_verloop_5-2);}</style><linearGradient id="Naamloos_verloop_14" x1="177.6" y1="123.13" x2="151.12" y2="163.98" gradientUnits="userSpaceOnUse"><stop offset="0" stop-opacity="0"/><stop offset="1"/></linearGradient><linearGradient id="Naamloos_verloop_14-2" x1="177.37" y1="73.5" x2="176.22" y2="119.7" xlink:href="#Naamloos_verloop_14"/><linearGradient id="Naamloos_verloop_14-3" x1="150.59" y1="189.26" x2="149.95" y2="214.75" xlink:href="#Naamloos_verloop_14"/><linearGradient id="Naamloos_verloop_14-4" x1="134.92" y1="135.63" x2="84.58" y2="199.04" xlink:href="#Naamloos_verloop_14"/><linearGradient id="Naamloos_verloop_14-5" x1="81.4" y1="189.26" x2="80.77" y2="214.75" xlink:href="#Naamloos_verloop_14"/><linearGradient id="Naamloos_verloop_14-6" x1="81.58" y1="165.12" x2="-6.34" y2="161.2" xlink:href="#Naamloos_verloop_14"/><linearGradient id="Naamloos_verloop_14-7" x1="29.21" y1="109.71" x2="28.05" y2="156" xlink:href="#Naamloos_verloop_14"/><linearGradient id="Naamloos_verloop_14-8" x1="113.78" y1="122.29" x2="115.96" y2="50.82" xlink:href="#Naamloos_verloop_14"/><linearGradient id="Naamloos_verloop_14-9" x1="133.59" y1="126.74" x2="137.94" y2="105.38" xlink:href="#Naamloos_verloop_14"/><linearGradient id="Naamloos_verloop_14-10" x1="102.53" y1="147.07" x2="94.68" y2="110.47" xlink:href="#Naamloos_verloop_14"/><linearGradient id="Naamloos_verloop_14-11" x1="165.56" y1="132.29" x2="44.95" y2="130.33" xlink:href="#Naamloos_verloop_14"/><linearGradient id="Naamloos_verloop_14-12" x1="97.12" y1="74.56" x2="73.62" y2="110.83" xlink:href="#Naamloos_verloop_14"/><linearGradient id="Naamloos_verloop_14-13" x1="123" y1="23.93" x2="98.82" y2="50.51" xlink:href="#Naamloos_verloop_14"/><linearGradient id="Naamloos_verloop_14-14" x1="154.68" y1="74.24" x2="135.97" y2="103.11" xlink:href="#Naamloos_verloop_14"/><radialGradient id="Naamloos_verloop_5" cx="147.16" cy="171.71" r="10.58" gradientUnits="userSpaceOnUse"><stop offset="0" stop-color="#87bd24"/><stop offset="1" stop-color="#87bd24" stop-opacity="0"/></radialGradient><radialGradient id="Naamloos_verloop_5-2" cx="110.85" cy="171.71" r="10.58" xlink:href="#Naamloos_verloop_5"/></defs><title>M004_RobotZR_20200426</title><g class="cls-1"><g id="robot"><path class="cls-2" d="M152.88,163.26a3.2,3.2,0,0,1-1.12-6.2c24-9,22.88-30.6,22.27-42.2-.09-1.64-.16-3-.16-4.26a3.2,3.2,0,0,1,6.4,0c0,1.05.07,2.38.15,3.92.65,12.3,2,37.88-26.41,48.54A3.41,3.41,0,0,1,152.88,163.26Z"/><path class="cls-3" d="M152.88,163.26a3.2,3.2,0,0,1-1.12-6.2c24-9,22.88-30.6,22.27-42.2-.09-1.64-.16-3-.16-4.26a3.2,3.2,0,0,1,6.4,0c0,1.05.07,2.38.15,3.92.65,12.3,2,37.88-26.41,48.54A3.41,3.41,0,0,1,152.88,163.26Z"/><path class="cls-4" d="M183.76,119.89c-6-3.35-10-5.37-14.53-5.12-4.2-5.82-8.07-25.9-5.1-26.86s8.29,1.8,9.93,7.33.56-27.21,8.87-20.82,8.2,16.26,7.53,22.68S186.32,117,183.76,119.89Z"/><path class="cls-5" d="M183.76,119.89c-6-3.35-10-5.37-14.53-5.12-4.2-5.82-8.07-25.9-5.1-26.86s8.29,1.8,9.93,7.33.56-27.21,8.87-20.82,8.2,16.26,7.53,22.68S186.32,117,183.76,119.89Z"/><ellipse class="cls-4" cx="150.27" cy="202" rx="8.61" ry="12.75"/><ellipse class="cls-6" cx="150.27" cy="202" rx="8.61" ry="12.75"/><path class="cls-7" d="M165.3,122.15c0-4.22-23.12-7.63-51.64-7.63S62,117.93,62,122.15v11.76c0,4.21,23.12,7.63,51.64,7.63s51.64-3.42,51.64-7.63Z"/><ellipse class="cls-8" cx="113.66" cy="122.15" rx="47.43" ry="5.16"/><path class="cls-9" d="M68.45,133.91l14,74.52c0,1.87,14,3.39,31.18,3.39s31.18-1.52,31.18-3.39l14-74.52Z"/><path class="cls-10" d="M68.45,133.91l14,74.52c0,1.87,14,3.39,31.18,3.39s31.18-1.52,31.18-3.39l14-74.52Z"/><ellipse class="cls-4" cx="81.09" cy="202" rx="8.61" ry="12.75"/><ellipse class="cls-11" cx="81.09" cy="202" rx="8.61" ry="12.75"/><path class="cls-2" d="M53.36,182.78a25.53,25.53,0,0,1-2.79-.15c-12-1.29-17.84-14.24-23.29-34.71a3.2,3.2,0,1,1,6.18-1.65c5.54,20.81,10.53,29.22,17.79,30,7.46.8,16.61-2.65,25.11-9.45a3.2,3.2,0,0,1,4,5C71.53,178.88,61.86,182.78,53.36,182.78Z"/><path class="cls-12" d="M53.36,182.78a25.53,25.53,0,0,1-2.79-.15c-12-1.29-17.84-14.24-23.29-34.71a3.2,3.2,0,1,1,6.18-1.65c5.54,20.81,10.53,29.22,17.79,30,7.46.8,16.61-2.65,25.11-9.45a3.2,3.2,0,0,1,4,5C71.53,178.88,61.86,182.78,53.36,182.78Z"/><path class="cls-4" d="M24.76,155.92C30.37,152,35,149.83,38.7,149.38c3.6-6.21,5.45-26.58,2.4-27.23S33,124.76,32,130.43s-3.27-27-10.9-19.83-6.53,17-5.22,23.31S21.93,153.3,24.76,155.92Z"/><path class="cls-13" d="M24.76,155.92C30.37,152,35,149.83,38.7,149.38c3.6-6.21,5.45-26.58,2.4-27.23S33,124.76,32,130.43s-3.27-27-10.9-19.83-6.53,17-5.22,23.31S21.93,153.3,24.76,155.92Z"/><path class="cls-14" d="M115.6,133c-6.56-22.89-8.9-62.93-9.78-78l-.18-3,8.52-.53.18,3c.87,14.81,3.16,54.16,9.46,76.15Z"/><path class="cls-15" d="M115.6,133c-6.56-22.89-8.9-62.93-9.78-78l-.18-3,8.52-.53.18,3c.87,14.81,3.16,54.16,9.46,76.15Z"/><path class="cls-14" d="M138,128.55l-8.47-1.05c2.7-21.78,5.22-27.17,5.92-28.31l7.25,4.51a2.09,2.09,0,0,0,.11-.2C142.7,103.69,140.49,108.28,138,128.55Z"/><path class="cls-16" d="M138,128.55l-8.47-1.05c2.7-21.78,5.22-27.17,5.92-28.31l7.25,4.51a2.09,2.09,0,0,0,.11-.2C142.7,103.69,140.49,108.28,138,128.55Z"/><path class="cls-14" d="M103.25,138c-.56-.7-13.81-17.2-18.54-25.24l7.35-4.33c4.42,7.51,17.71,24.06,17.84,24.22Z"/><path class="cls-17" d="M103.25,138c-.56-.7-13.81-17.2-18.54-25.24l7.35-4.33c4.42,7.51,17.71,24.06,17.84,24.22Z"/><path class="cls-18" d="M161.09,122.15c0,2.84-21.23,5.15-47.43,5.15S66.23,125,66.23,122.15H62v11.76c0,4.21,23.12,7.63,51.64,7.63s51.64-3.42,51.64-7.63V122.15Z"/><path class="cls-19" d="M161.09,122.15c0,2.84-21.23,5.15-47.43,5.15S66.23,125,66.23,122.15H62v11.76c0,4.21,23.12,7.63,51.64,7.63s51.64-3.42,51.64-7.63V122.15Z"/><path class="cls-14" d="M68.12,91.11a17.12,17.12,0,0,1,1.2-4.93L57,85.05l-.91,10L68.4,96.17A17.39,17.39,0,0,1,68.12,91.11Z"/><path class="cls-14" d="M102.34,89.22a17,17,0,0,1,.28,5.06,17.46,17.46,0,0,1-1.19,4.92l12.34,1.14.92-10Z"/><path class="cls-14" d="M101.33,85.94,110.85,78l-6.4-7.71-9.53,7.93A17.45,17.45,0,0,1,101.33,85.94Z"/><path class="cls-14" d="M69.42,99.44l-9.53,7.93,6.41,7.7,9.52-7.92A17.39,17.39,0,0,1,69.42,99.44Z"/><path class="cls-14" d="M87,75.44a17.47,17.47,0,0,1,4.92,1.2L93,64.3l-10-.92L81.9,75.72A17.35,17.35,0,0,1,87,75.44Z"/><path class="cls-14" d="M83.79,109.94a17.44,17.44,0,0,1-4.93-1.19l-1.13,12.34,10,.92,1.13-12.34A17.31,17.31,0,0,1,83.79,109.94Z"/><path class="cls-14" d="M78.62,76.74,70.7,67.21,63,73.62l7.92,9.53A17.34,17.34,0,0,1,78.62,76.74Z"/><path class="cls-14" d="M99.83,102.24a17.41,17.41,0,0,1-7.71,6.41l7.93,9.53,7.7-6.41Z"/><path class="cls-14" d="M85.35,79.62c.4,0,.81,0,1.22,0a13.08,13.08,0,0,1-1.17,26.1q-.62,0-1.23-.06a13.07,13.07,0,0,1,1.18-26.09h0m0-8.54a21.61,21.61,0,0,0-2,43.13c.68.06,1.34.09,2,.09a21.61,21.61,0,0,0,1.95-43.12,19.27,19.27,0,0,0-2-.1Z"/><g class="cls-20"><path class="cls-21" d="M85.35,79.62c.4,0,.81,0,1.22,0a13.08,13.08,0,0,1-1.17,26.1q-.62,0-1.23-.06a13.07,13.07,0,0,1,1.18-26.09h0m0-8.54a21.61,21.61,0,0,0-2,43.13c.68.06,1.34.09,2,.09a21.61,21.61,0,0,0,1.95-43.12,19.27,19.27,0,0,0-2-.1Z"/></g><path class="cls-14" d="M97.17,30.67a15.3,15.3,0,0,1,2.59-3.55l-9.53-5-4,7.71,9.54,5A15.27,15.27,0,0,1,97.17,30.67Z"/><path class="cls-14" d="M125.29,40.5a15.08,15.08,0,0,1-4,7.71l9.54,5,4-7.71Z"/><path class="cls-14" d="M125.56,37.53l10.28-3.21L133.25,26,123,29.21A15.09,15.09,0,0,1,125.56,37.53Z"/><path class="cls-14" d="M95.45,37.8,85.17,41l2.6,8.31,10.28-3.2A15.18,15.18,0,0,1,95.45,37.8Z"/><path class="cls-14" d="M117.5,24.33a15,15,0,0,1,3.55,2.59l5-9.54-7.72-4-5,9.54A15.27,15.27,0,0,1,117.5,24.33Z"/><path class="cls-14" d="M103.52,51A15.36,15.36,0,0,1,100,48.41l-5,9.53L102.67,62l5-9.54A15.09,15.09,0,0,1,103.52,51Z"/><path class="cls-14" d="M110.37,22.61l-3.21-10.28-8.31,2.59,3.2,10.29A15.09,15.09,0,0,1,110.37,22.61Z"/><path class="cls-14" d="M119,50.12a15.18,15.18,0,0,1-8.32,2.6L113.85,63l8.32-2.6Z"/><path class="cls-14" d="M110.52,26.3a11.36,11.36,0,1,1-10.08,6.09,11.28,11.28,0,0,1,10.08-6.09h0m0-7.42a18.79,18.79,0,1,0,8.7,2.15,18.75,18.75,0,0,0-8.7-2.15Z"/><g class="cls-20"><path class="cls-22" d="M110.52,26.3a11.36,11.36,0,1,1-10.08,6.09,11.28,11.28,0,0,1,10.08-6.09h0m0-7.42a18.79,18.79,0,1,0,8.7,2.15,18.75,18.75,0,0,0-8.7-2.15Z"/></g><path class="cls-14" d="M132.05,85a13.66,13.66,0,0,1,1.64-3.69l-9.5-2.65L122,86.31l9.5,2.65A14.1,14.1,0,0,1,132.05,85Z"/><path class="cls-14" d="M159.11,88.39a13.76,13.76,0,0,1-.5,4A14.09,14.09,0,0,1,157,96.07l9.5,2.66,2.14-7.68Z"/><path class="cls-14" d="M158.79,85.68l8.59-4.84-3.91-7-8.6,4.84A13.87,13.87,0,0,1,158.79,85.68Z"/><path class="cls-14" d="M131.87,91.68l-8.6,4.84,3.92,7,8.59-4.84A13.9,13.9,0,0,1,131.87,91.68Z"/><path class="cls-14" d="M149,75.4A13.46,13.46,0,0,1,152.72,77l2.66-9.5-7.68-2.15L145,74.89A14.13,14.13,0,0,1,149,75.4Z"/><path class="cls-14" d="M141.62,102a14.31,14.31,0,0,1-3.69-1.64l-2.65,9.5L143,112l2.66-9.5A13.76,13.76,0,0,1,141.62,102Z"/><path class="cls-14" d="M142.33,75.22l-4.84-8.6-7,3.92,4.84,8.59A13.86,13.86,0,0,1,142.33,75.22Z"/><path class="cls-14" d="M155.28,98.22a13.87,13.87,0,0,1-6.95,3.92l4.84,8.59,7-3.91Z"/><path class="cls-14" d="M145.32,78.27a10.41,10.41,0,1,1-10,7.61,10.36,10.36,0,0,1,10-7.61h0m0-6.79a17.21,17.21,0,1,0,4.64.64,17,17,0,0,0-4.64-.64Z"/><g class="cls-20"><path class="cls-23" d="M145.32,78.27a10.41,10.41,0,1,1-10,7.61,10.36,10.36,0,0,1,10-7.61h0m0-6.79a17.21,17.21,0,1,0,4.64.64,17,17,0,0,0-4.64-.64Z"/></g><path class="cls-24" d="M130.22,162.24c0,7.1-2.06,10.63-4.6,10.63S121,169.34,121,162.24s2.06-12.86,4.61-12.86S130.22,155.14,130.22,162.24Z"/><path class="cls-25" d="M114.47,178.8c10.13,15.9,28.05,9.25,30.86,3"/><path class="cls-8" d="M130.11,159.41c-.39-4.83-1.75-8.63-3.48-9.71-1.17.94-2,4-2,7.53,0,4.33,1.26,7.84,2.81,7.84C128.69,165.07,129.77,162.68,130.11,159.41Z"/><path class="cls-24" d="M143.66,160.35c0,7.1-2.06,10.63-4.6,10.63s-4.61-3.53-4.61-10.63,2.06-12.86,4.61-12.86S143.66,153.25,143.66,160.35Z"/><path class="cls-8" d="M143.55,157.52c-.39-4.83-1.75-8.63-3.48-9.71-1.17.95-2,4-2,7.53,0,4.33,1.26,7.84,2.81,7.84C142.13,163.18,143.21,160.79,143.55,157.52Z"/><path class="cls-24" d="M152.2,139c1.84-.31,3.52-.63,5-1V124.19c-1.36.34-3.05.66-5,1Z"/><path class="cls-24" d="M116,141.53c1.69,0,3.37,0,5-.07V127.24c-1.65,0-3.32.05-5,.06Z"/><path class="cls-24" d="M128.08,141.24c1.72-.08,3.39-.16,5-.26V126.85c-1.62.08-3.3.15-5,.21Z"/><path class="cls-24" d="M140.14,140.46c1.74-.15,3.42-.32,5-.51V126c-1.58.15-3.26.29-5,.42Z"/><path class="cls-24" d="M104,141.4c1.65,0,3.32.08,5,.11V127.28c-1.7,0-3.38,0-5-.09Z"/><path class="cls-24" d="M67.8,137.42c1.44.41,3.12.8,5,1.16V124.77a26.25,26.25,0,0,1-5-1.31Z"/><path class="cls-24" d="M79.86,139.68c1.59.2,3.27.39,5,.56v-14c-1.78-.14-3.45-.3-5-.48Z"/><path class="cls-24" d="M91.92,140.83c1.62.11,3.3.21,5,.3V127c-1.73-.07-3.4-.15-5-.24Z"/><circle class="cls-26" cx="147.16" cy="171.71" r="3.69"/><circle class="cls-27" cx="147.16" cy="171.71" r="10.58"/><path class="cls-28" d="M147.16,169.36a2.35,2.35,0,0,1,2.35,2.35"/><circle class="cls-26" cx="110.85" cy="171.71" r="3.69"/><circle class="cls-29" cx="110.85" cy="171.71" r="10.58"/><path class="cls-28" d="M110.85,169.36a2.36,2.36,0,0,1,2.36,2.35"/></g></g></svg>