<svg xmlns="http://www.w3.org/2000/svg" viewBox="0 0 369.5213 150.4728"><path fill="#1e64c8" d="M131.8277 150.4716q-3.9786 0-6.8006-.694-2.822-.6939-4.2098-1.5266v-7.8645q1.758.9715 4.3486 1.758 2.637.7401 5.9216.7401 2.128 0 3.886-.4163 1.758-.4627 2.9607-1.388 1.2491-.9714 1.8968-2.4518.6939-1.5266.6939-3.701 0-1.8504-.4626-3.2845-.4164-1.4342-1.249-2.6832-.8328-1.249-2.0356-2.3594-1.1566-1.1565-2.637-2.4056l-4.8112-4.1636q-1.9892-1.7116-3.6084-3.3308-1.573-1.6192-2.6832-3.4697-1.1103-1.8967-1.7117-4.1173-.6014-2.2668-.6014-5.1813 0-3.516 1.1566-6.4304 1.1565-2.9145 3.377-4.9963 2.2669-2.0818 5.5052-3.2384 3.2846-1.1565 7.5407-1.1565 1.5267 0 3.007.185 1.4804.1851 2.7295.509 1.2953.2775 2.3131.6939 1.0178.37 1.6654.7402v7.772q-1.3878-.8328-3.7935-1.573-2.4056-.7401-5.1813-.7401-2.1743 0-3.9322.4626-1.7117.4163-2.9608 1.3878-1.2028.9253-1.8968 2.452-.6476 1.5266-.6476 3.6546 0 1.8505.4163 3.2846.4627 1.3879 1.2954 2.637.8327 1.249 1.9892 2.4055 1.2028 1.1104 2.6832 2.4057l4.8113 4.1636q1.9892 1.7116 3.5621 3.3308 1.6192 1.6192 2.7295 3.516 1.1103 1.8504 1.7117 4.1172.6014 2.2206.6014 5.1351 0 3.5159-1.1566 6.4304-1.1565 2.9145-3.4233 4.9963-2.2206 2.0818-5.5052 3.2383-3.2846 1.1566-7.4944 1.1566zm45.7993 0q-5.9216.0464-9.7613-1.6655-3.7935-1.7116-6.014-5.4589-2.2206-3.7472-3.0996-9.6687-.8327-5.9678-.8327-14.3875 0-8.4196.9715-14.3411 1.0177-5.9216 3.2846-9.6688 2.313-3.7472 6.014-5.4589 3.7472-1.7117 9.2524-1.7117 3.3308 0 6.1066.694 2.7757.6939 4.256 1.5266v7.8645q-.8326-.4626-1.943-.879-1.1102-.4163-2.4055-.7402-1.2954-.37-2.6833-.5551-1.3878-.2312-2.7756-.2312-3.2847 0-5.459.9253-2.1743.9252-3.4696 3.5159-1.2953 2.5444-1.8505 7.1706-.5089 4.5799-.5089 11.8893 0 7.4019.5552 12.028.5551 4.58 1.8505 7.1707 1.3415 2.5444 3.4696 3.4696 2.1743.9253 5.4127.9253 1.434 0 2.9144-.2315 1.4804-.2312 2.8683-.5552 1.3878-.37 2.5444-.8327 1.2028-.4626 2.0355-.9715v7.8645q-.7402.4164-1.943.8327-1.1565.4164-2.5907.7402-1.434.3239-3.0533.509-1.5728.231-3.1457.231zm48.1123-28.4049h-18.3197v27.2946h-8.5122V89.2208h8.5122V114.85h18.3197V89.221h8.5122v60.1404h-8.5122zm38.86 28.4049q-3.192 0-5.829-.5552-2.5906-.5551-4.6262-1.8967-2.0355-1.3879-3.5621-3.6547-1.4804-2.3131-2.452-5.7365-.9714-3.4696-1.4803-8.2346-.4626-4.765-.4626-11.1029 0-9.3449 1.1103-15.359 1.1103-6.0602 3.3771-9.5761 2.313-3.516 5.7827-4.8575 3.4697-1.3879 8.1421-1.3879 4.8113 0 8.281 1.3416 3.5158 1.3416 5.7827 4.8113 2.2668 3.4696 3.3308 9.5299 1.1103 6.0603 1.1103 15.4977 0 6.2454-.5089 11.0104-.4626 4.7187-1.4804 8.1883-1.0177 3.4697-2.5444 5.7828-1.5266 2.2668-3.6084 3.6547-2.0355 1.3878-4.6262 1.943-2.5906.6014-5.7365.6014zm0-7.402q2.9145 0 4.765-1.064 1.8968-1.064 3.007-3.7472 1.1103-2.6832 1.5267-7.263.4163-4.6263.4163-11.7044 0-7.078-.4163-11.658-.4164-4.6262-1.5267-7.3093-1.1102-2.6832-3.007-3.7473-1.8505-1.064-4.765-1.064-2.9144 0-4.8112 1.064-1.8505 1.064-2.9145 3.7473-1.064 2.6831-1.4804 7.3093-.4163 4.58-.4163 11.658 0 7.0781.4163 11.7043.4164 4.58 1.4804 7.2631 1.064 2.6832 2.9145 3.7472 1.8968 1.064 4.8112 1.064zm47.1872 7.402q-3.192 0-5.829-.5552-2.5907-.5551-4.6262-1.8967-2.0355-1.3879-3.5622-3.6547-1.4803-2.3131-2.4518-5.7365-.9715-3.4696-1.4804-8.2346-.4627-4.765-.4627-11.1029 0-9.3449 1.1103-15.359 1.1103-6.0602 3.3771-9.5761 2.3132-3.516 5.7828-4.8575 3.4696-1.3879 8.142-1.3879 4.8113 0 8.281 1.3416 3.5159 1.3416 5.7827 4.8113 2.2669 3.4696 3.3309 9.5299 1.1102 6.0603 1.1102 15.4977 0 6.2454-.5088 11.0104-.4626 4.7187-1.4804 8.1883-1.0178 3.4697-2.5444 5.7828-1.5267 2.2668-3.6084 3.6547-2.0356 1.3878-4.6262 1.943-2.5907.6014-5.7365.6014zm0-7.402q2.9145 0 4.765-1.064 1.8967-1.064 3.007-3.7472t1.5266-7.263q.4164-4.6263.4164-11.7044 0-7.078-.4164-11.658-.4163-4.6262-1.5266-7.3093-1.1103-2.6832-3.007-3.7473-1.8505-1.064-4.765-1.064-2.9145 0-4.8113 1.064-1.8504 1.064-2.9144 3.7473-1.064 2.6831-1.4804 7.3093-.4164 4.58-.4164 11.658 0 7.0781.4164 11.7043.4163 4.58 1.4804 7.2631 1.064 2.6832 2.9144 3.7472 1.8968 1.064 4.8113 1.064zm30.5328-53.8488h8.5122v52.9236h18.6898v7.2169h-27.202zM139.1374 62.835q-3.1922 0-5.8291-.5551-2.5908-.5552-4.6263-1.8968-2.0356-1.3879-3.5623-3.6547-1.4804-2.3132-2.4519-5.7366-.9715-3.4697-1.4804-8.2348-.4626-4.765-.4626-11.103 0-9.3452 1.1103-15.3593 1.1103-6.0605 3.3772-9.5764 2.3131-3.516 5.7828-4.8576 3.4697-1.388 8.1423-1.388 4.8113 0 8.281 1.3417 3.516 1.3416 5.7829 4.8113 2.2669 3.4697 3.3309 9.5302 1.1103 6.0604 1.1103 15.498 0 6.2455-.5089 11.0106-.4626 4.7188-1.4804 8.1885-1.0178 3.4697-2.5445 5.7828-1.5266 2.267-3.6085 3.6548-2.0355 1.3879-4.6262 1.943-2.5907.6015-5.7366.6015zm0-7.402q2.9145 0 4.765-1.064 1.8968-1.064 3.0071-3.7473 1.1103-2.6833 1.5267-7.2633.4164-4.6263.4164-11.7045t-.4164-11.6582q-.4164-4.6263-1.5267-7.3095-1.1103-2.6833-3.007-3.7473-1.8506-1.064-4.7651-1.064-2.9146 0-4.8114 1.064-1.8505 1.064-2.9145 3.7473-1.064 2.6832-1.4804 7.3095-.4164 4.58-.4164 11.6582 0 7.0782.4164 11.7045.4163 4.58 1.4804 7.2633 1.064 2.6832 2.9145 3.7473 1.8968 1.064 4.8114 1.064zm30.5334-53.85h14.434q4.2562 0 7.6334.9716 3.3772.9715 5.6903 3.2384 2.3594 2.2206 3.5623 5.9216 1.249 3.6548 1.249 9.0213 0 5.2277-1.2953 8.8825-1.249 3.6547-3.6085 5.9679-2.3594 2.2668-5.7366 3.2846-3.331 1.0178-7.4946 1.0178h-5.9216v21.836h-8.5124zm8.5124 7.217v23.9642h4.9964q2.4982 0 4.395-.5089 1.943-.5551 3.2383-1.8967 1.2954-1.3417 1.943-3.6548.694-2.3594.694-5.968 0-3.6084-.694-5.9216-.6476-2.313-1.943-3.6547-1.2953-1.3416-3.2384-1.8505-1.8967-.509-4.395-.509zM90.565 150H80.5021V0h10.0627zm-24.5078 0H55.5075L40.5757 67.3846q-1.1362-6.4615-2.2723-13.2692-1.136-6.6923-2.11-13.2692-1.0549-6.4616-1.8664-12.577-.8115-6-1.3796-10.9615-.568 4.9615-1.3796 10.9615-.8115 6.1154-1.7853 12.577-.9738 6.5769-2.11 13.2692-1.136 6.8077-2.3533 13.2692L10.3874 150H0L27.7537 0h10.712z"/></svg>
